<svg width="191.471" height="190.122" viewBox="0 0 50.66 50.303" xmlns="http://www.w3.org/2000/svg">
    <g style="stroke-width:1.35096">
        <path style="fill:#bf8a1b;fill-opacity:1;stroke:none;stroke-width:1.75625;stroke-linecap:round;stroke-linejoin:round;stroke-dasharray:none;stroke-opacity:1;paint-order:fill markers stroke" d="M41.92 11.122a2.843 2.843 0 0 0-4.008.406l-3.13 6.347-10.429 12.107C14.97 43.922 5.713 51.41-3.579 62.377c-2.527 3.63 5.336 9.201 7.725 6.303 8.76-11.348 16.157-24.71 26.131-33.864l9.77-12.645L44.34 19l.887-1.505c.8-1.36 1.226-2.676.003-3.673z" transform="matrix(.7402 .00406 -.00406 .7402 4.113 -1.986)"/>
        <path style="fill:none;fill-opacity:1;stroke:#d1bb74;stroke-width:.945674;stroke-linecap:butt;stroke-linejoin:miter;stroke-dasharray:none;stroke-opacity:1;paint-order:fill markers stroke" d="M34.782 17.875c1.305 2.163 3.13 3.482 5.265 4.296M33.778 19.105c1.305 2.163 3.13 3.482 5.265 4.296" transform="matrix(.7402 .00406 -.00406 .7402 4.113 -1.986)"/>
        <path style="fill:none;fill-opacity:1;stroke:#3e2d08;stroke-width:2.29664;stroke-linecap:square;stroke-linejoin:round;stroke-dasharray:none;stroke-opacity:1;paint-order:fill markers stroke" d="M41.92 11.122a2.843 2.843 0 0 0-4.008.406l-3.13 6.347-10.429 12.107C14.97 43.922 5.713 51.41-3.579 62.377c-2.527 3.63 5.336 9.201 7.725 6.303 8.76-11.348 16.157-24.71 26.131-33.864l9.777-12.654 4.289-3.165.884-1.5c.8-1.36 1.226-2.677.003-3.674z" transform="matrix(.7402 .00406 -.00406 .7402 4.113 -1.986)"/>
        <path style="fill:#b9b9b9;fill-opacity:1;stroke:none;stroke-width:1.75625;stroke-linecap:butt;stroke-linejoin:miter;stroke-dasharray:none;stroke-opacity:1;paint-order:fill markers stroke" d="M60.902 6.777c-7.54-3.806-15.55-4.635-23.068 1.118-2.774 3.399-1.856 8.738 1.543 11.511 9.944 5.22 13.422-11.108 21.525-12.629Z" transform="matrix(.7402 .00406 -.00406 .7402 4.113 -1.986)"/>
        <path style="opacity:.25;fill:#000;fill-opacity:1;stroke:none;stroke-width:1.75625;stroke-linecap:butt;stroke-linejoin:miter;stroke-dasharray:none;stroke-opacity:1;paint-order:fill markers stroke" d="M56.977 5.097C50.505 3.246 40.27 3.848 36.8 9.613c5.804-4.4 19.324-2.44 19.39-2.451l3-.517z" transform="matrix(.7402 .00406 -.00406 .7402 4.113 -1.986)"/>
        <path style="opacity:.25;fill:#fff;fill-opacity:1;stroke:none;stroke-width:1.75625;stroke-linecap:butt;stroke-linejoin:miter;stroke-dasharray:none;stroke-opacity:1;paint-order:fill markers stroke" d="M37.411 17.091c3.879 2.08 7.242-7.942 18.779-9.929l3-.517c5.531-.033-1.206.97-3.057 2.875-4.765 4.918-8.82 11.55-14.12 10.816-2.093-.141-3.545-1.36-4.602-3.245Z" transform="matrix(.7402 .00406 -.00406 .7402 4.113 -1.986)"/>
        <path style="fill:none;fill-opacity:1;stroke:#484848;stroke-width:2.29664;stroke-linecap:square;stroke-linejoin:round;stroke-dasharray:none;stroke-opacity:1;paint-order:fill markers stroke" d="M60.902 6.777c-7.54-3.806-15.55-4.635-23.068 1.118-2.774 3.399-1.856 8.738 1.543 11.511 9.944 5.22 13.422-11.108 21.525-12.629Z" transform="matrix(.7402 .00406 -.00406 .7402 4.113 -1.986)"/>
        <path style="fill:#1d8d07;fill-opacity:1;stroke:none;stroke-width:1.75625;stroke-linecap:butt;stroke-linejoin:miter;stroke-dasharray:none;stroke-opacity:1;paint-order:fill markers stroke" d="M47.208 4.534c-.808 1.707.52 4.8 5.495 7.988.299-.954-4.188-10.508-5.495-7.988Z" transform="matrix(.7402 .00406 -.00406 .7402 4.113 -1.986)"/>
        <path style="fill:#1d8d07;fill-opacity:1;stroke:#134506;stroke-width:2.29664;stroke-linecap:square;stroke-linejoin:round;stroke-dasharray:none;stroke-opacity:1;paint-order:fill markers stroke" d="M53.105 12.881c1.516-1.848 5.901-5.538 8.67-6.02-1.453-1.33-10.011-3.942-13.52-3.132-.7.161-.708.103-1.154.177" transform="matrix(.7402 .00406 -.00406 .7402 4.113 -1.986)"/>
    </g>
</svg>
