<svg width="491.965" height="638.254" viewBox="0 0 130.166 168.871" xmlns="http://www.w3.org/2000/svg">
    <g transform="translate(2.1 2.1)">
        <text xml:space="preserve" style="font-weight:700;font-size:4.9389px;font-family:sans-serif;-inkscape-font-specification:'sans-serif Bold';fill:#119f08;fill-opacity:1;stroke:none;stroke-width:5.29167;stroke-dasharray:none;stroke-dashoffset:0;stroke-opacity:1;paint-order:markers stroke fill" x="30.123" y="84.049"/>
        <path style="fill:#595959;fill-opacity:1;stroke:#3c3c3c;stroke-width:9.292;stroke-dasharray:none;stroke-dashoffset:0;stroke-opacity:1;paint-order:markers stroke fill" d="M61.924 103.177c-11.949 0-25.869 4.199-25.869 7.419 0 3.22 13.92 7.419 25.87 7.419 11.949 0 25.869-4.199 25.869-7.419 0-3.22-13.92-7.419-25.87-7.419z"/>
        <path style="fill:#595959;fill-opacity:1;stroke:#3c3c3c;stroke-width:9.292;stroke-dasharray:none;stroke-dashoffset:0;stroke-opacity:1;paint-order:markers stroke fill" d="M49.667 82.08a.556.556 0 0 0-.557.556v24.218c0 .308.271.44.557.557 8.542 3.515 16.684 3.233 24.515 0 .285-.118.557-.249.557-.557V82.636a.556.556 0 0 0-.557-.557z"/>
        <rect style="fill:#595959;fill-opacity:1;stroke:#3c3c3c;stroke-width:9.492;stroke-dasharray:none;stroke-dashoffset:0;stroke-opacity:1;paint-order:markers stroke fill" width="120.674" height="84.426" x="2.646" y="2.646" ry=".557"/>
        <rect style="fill:#111;fill-opacity:1;stroke:none;stroke-width:4.7625;stroke-dasharray:none;stroke-dashoffset:0;stroke-opacity:1;paint-order:markers stroke fill" width="108.606" height="75.984" x="8.68" y="6.867" ry=".501"/>
        <g style="font-weight:700;font-size:4.93889px;-inkscape-font-specification:'sans-serif Bold';fill:#0cce00;stroke-width:5.29167;paint-order:markers stroke fill" aria-label="-------------------------------------------- 01110011 01110101 01110010 01101111 01101001 00101110 01101001 01101111 --------------------------------------------- Process complete.">
            <path d="M10.667 10.388h1.514v.702h-1.514zm2.05 0h1.514v.702h-1.515zm2.05 0h1.514v.702h-1.515zm2.05 0h1.514v.702h-1.515zm2.049 0h1.514v.702h-1.514Zm2.05 0h1.514v.702h-1.514zm2.05 0h1.514v.702h-1.514zm2.05 0h1.514v.702h-1.515zm2.05 0h1.514v.702h-1.515Zm2.05 0h1.514v.702h-1.515zm2.049 0h1.514v.702h-1.514zm2.05 0h1.514v.702h-1.514zm2.05 0h1.514v.702h-1.514zm2.05 0h1.514v.702h-1.515zm2.05 0h1.514v.702h-1.515zm2.05 0h1.514v.702h-1.515zm2.049 0h1.514v.702h-1.514zm2.05 0h1.514v.702h-1.514Zm2.05 0h1.514v.702h-1.514zm2.05 0h1.514v.702h-1.515zm2.05 0h1.514v.702h-1.515zm2.05 0h1.514v.702h-1.515Zm2.049 0h1.514v.702h-1.514zm2.05 0h1.514v.702h-1.514zm2.05 0h1.514v.702h-1.514zm2.05 0h1.514v.702h-1.515zm2.05 0h1.514v.702h-1.515Zm2.05 0h1.514v.702h-1.515zm2.049 0h1.514v.702h-1.514zm2.05 0h1.514v.702h-1.514zm2.05 0h1.514v.702h-1.514Zm2.05 0h1.514v.702H74.21zm2.05 0h1.514v.702H76.26zm2.05 0h1.514v.702H78.31zm2.049 0h1.514v.702h-1.514zm2.05 0h1.514v.702h-1.514Zm2.05 0h1.514v.702h-1.514zm2.05 0h1.514v.702H86.51zm2.05 0h1.514v.702H88.56zm2.05 0h1.514v.702H90.61zm2.049 0h1.514v.702H92.66zm2.05 0h1.514v.702H94.71zm2.05 0h1.514v.702H96.76zm2.05 0h1.514v.702h-1.515zM14.39 16.53q0-.675-.128-.95-.125-.277-.424-.277-.3 0-.427.277-.128.275-.128.95 0 .683.128.962.128.28.427.28.296 0 .424-.28t.128-.962zm.929.007q0 .895-.386 1.382-.386.485-1.095.485-.712 0-1.097-.485-.386-.487-.386-1.382 0-.897.386-1.382.385-.487 1.097-.487.709 0 1.095.487.386.485.386 1.382zm.815 1.155h.82v-2.327l-.842.174v-.632l.837-.174h.882v2.96h.82v.64h-2.517zm3.436 0h.82v-2.327l-.842.174v-.632l.837-.174h.883v2.96h.82v.64H19.57zm3.437 0h.82v-2.327l-.842.174v-.632l.837-.174h.882v2.96h.82v.64h-2.517zm5.129-1.162q0-.675-.128-.95-.125-.277-.424-.277-.3 0-.427.277-.128.275-.128.95 0 .683.128.962.128.28.427.28.296 0 .424-.28t.128-.962zm.928.007q0 .895-.385 1.382-.386.485-1.095.485-.712 0-1.097-.485-.386-.487-.386-1.382 0-.897.386-1.382.385-.487 1.097-.487.709 0 1.095.487.385.485.385 1.382zm2.509-.007q0-.675-.128-.95-.126-.277-.425-.277t-.427.277q-.127.275-.127.95 0 .683.127.962.128.28.427.28.297 0 .425-.28t.128-.962zm.928.007q0 .895-.386 1.382-.386.485-1.095.485-.711 0-1.097-.485-.386-.487-.386-1.382 0-.897.386-1.382.386-.487 1.097-.487.71 0 1.095.487.386.485.386 1.382zm.815 1.155h.82v-2.327l-.842.174v-.632l.837-.174h.883v2.96h.82v.64h-2.518zm3.437 0h.82v-2.327l-.842.174v-.632l.837-.174h.882v2.96h.82v.64h-2.517zM43.6 16.53q0-.675-.127-.95-.126-.277-.425-.277t-.427.277q-.127.275-.127.95 0 .682.127.962.128.28.427.28.297 0 .425-.28.127-.28.127-.962zm.929.007q0 .895-.386 1.382-.386.485-1.095.485-.711 0-1.097-.485-.386-.487-.386-1.382 0-.897.386-1.382.386-.487 1.097-.487.71 0 1.095.487.386.485.386 1.382zm.815 1.155h.82v-2.327l-.842.174v-.632l.837-.174h.883v2.96h.82v.64h-2.518zm3.436 0h.82v-2.327l-.841.174v-.632l.837-.174h.882v2.96h.82v.64h-2.518zm3.437 0h.82v-2.327l-.842.174v-.632l.837-.174h.883v2.96h.82v.64h-2.518zm5.13-1.162q0-.675-.128-.95-.126-.278-.425-.278t-.427.278q-.128.275-.128.95 0 .682.128.962.128.28.427.28.297 0 .425-.28.127-.28.127-.962zm.928.007q0 .895-.386 1.382-.386.485-1.095.485-.711 0-1.097-.485-.386-.487-.386-1.382 0-.897.386-1.382.386-.487 1.097-.487.71 0 1.095.487.386.485.386 1.382zm.815 1.155h.82v-2.327l-.842.174v-.632l.837-.174h.883v2.96h.82v.64H59.09zm5.13-1.162q0-.675-.128-.95-.126-.278-.425-.278t-.427.278q-.128.275-.128.95 0 .682.128.962.128.28.427.28.297 0 .425-.28.127-.28.127-.962zm.928.007q0 .895-.386 1.382-.386.485-1.095.485-.711 0-1.097-.485-.386-.487-.386-1.382 0-.897.386-1.382.386-.487 1.097-.487.71 0 1.095.487.386.485.386 1.382zm.815 1.155h.82v-2.327l-.842.174v-.632l.837-.174h.883v2.96h.82v.64h-2.518zm6.849-1.162q0-.675-.128-.95-.125-.278-.425-.278-.299 0-.426.278-.128.275-.128.95 0 .682.128.962.127.28.426.28.297 0 .425-.28t.128-.962zm.928.007q0 .895-.386 1.382-.386.485-1.095.485-.71 0-1.097-.485-.386-.487-.386-1.382 0-.897.386-1.382.386-.487 1.097-.487.71 0 1.095.487.386.485.386 1.382zm.815 1.155h.82v-2.327l-.841.174v-.632l.836-.174h.883v2.96h.82v.64h-2.518zm3.437 0h.82v-2.327l-.842.174v-.632l.837-.174h.883v2.96h.82v.64h-2.518zm3.436 0h.82v-2.327l-.841.174v-.632l.836-.174h.883v2.96h.82v.64h-2.518zm5.13-1.162q0-.675-.128-.95-.126-.278-.425-.278t-.426.278q-.128.275-.128.95 0 .682.128.962.127.28.426.28.297 0 .425-.28t.128-.962zm.928.007q0 .895-.386 1.382-.386.485-1.095.485-.711 0-1.097-.485-.386-.487-.386-1.382 0-.897.386-1.382.386-.487 1.097-.487.71 0 1.095.487.386.485.386 1.382zm2.508-.007q0-.675-.128-.95-.125-.278-.424-.278-.3 0-.427.278-.128.275-.128.95 0 .682.128.962.128.28.427.28.297 0 .424-.28.128-.28.128-.962zm.929.007q0 .895-.386 1.382-.386.485-1.095.485-.712 0-1.097-.485-.386-.487-.386-1.382 0-.897.386-1.382.385-.487 1.097-.487.709 0 1.095.487.386.485.386 1.382zm.815 1.155h.82v-2.327l-.842.174v-.632l.837-.174h.882v2.96h.82v.64H91.74zm5.13-1.162q0-.675-.129-.95-.125-.278-.424-.278-.3 0-.427.278-.128.275-.128.95 0 .682.128.962.128.28.427.28.296 0 .424-.28t.128-.962zm.928.007q0 .895-.386 1.382-.386.485-1.095.485-.712 0-1.097-.485-.386-.487-.386-1.382 0-.897.386-1.382.385-.487 1.097-.487.709 0 1.095.487.386.485.386 1.382zM14.39 22.704q0-.676-.128-.95-.125-.278-.424-.278-.3 0-.427.278-.128.274-.128.95 0 .682.128.962.128.28.427.28.296 0 .424-.28t.128-.962zm.929.007q0 .895-.386 1.382-.386.484-1.095.484-.712 0-1.097-.484-.386-.487-.386-1.382 0-.897.386-1.382.385-.487 1.097-.487.709 0 1.095.487.386.485.386 1.382zm.815 1.155h.82v-2.327l-.842.174v-.632l.837-.174h.882v2.96h.82v.64h-2.517zm3.436 0h.82v-2.327l-.842.173v-.631l.837-.174h.883v2.959h.82v.642H19.57zm5.13-1.162q0-.676-.128-.95-.126-.278-.425-.278t-.427.277q-.127.275-.127.95 0 .683.127.963.128.28.427.28.297 0 .425-.28t.128-.962zm.928.007q0 .895-.386 1.382-.386.484-1.095.484-.711 0-1.097-.484-.386-.487-.386-1.382 0-.897.386-1.382.386-.487 1.097-.487.71 0 1.095.487.386.485.386 1.382zm.815 1.155h.82v-2.327l-.842.173v-.631l.837-.174h.883v2.959h.82v.641h-2.518zm3.437 0h.82v-2.327l-.842.173v-.631l.837-.174h.882v2.959h.82v.641H29.88zm3.436 0h.82v-2.327l-.842.173v-.631l.837-.174h.883v2.959h.82v.641h-2.518zm3.437 0h.82v-2.327l-.842.173v-.631l.837-.174h.882v2.959h.82v.641h-2.517zm6.848-1.162q0-.676-.127-.95-.126-.278-.425-.278t-.427.277q-.127.275-.127.95 0 .683.127.963.128.28.427.28.297 0 .425-.28.127-.28.127-.962zm.929.007q0 .895-.386 1.382-.386.484-1.095.484-.711 0-1.097-.484-.386-.487-.386-1.382 0-.897.386-1.382.386-.487 1.097-.487.71 0 1.095.487.386.485.386 1.382zm.815 1.155h.82v-2.327l-.842.173v-.631l.837-.174h.883v2.959h.82v.641h-2.518zm3.436 0h.82v-2.327l-.841.173v-.631l.837-.174h.882v2.959h.82v.641h-2.518zm5.13-1.162q0-.676-.128-.95-.125-.278-.424-.278-.3 0-.427.277-.128.275-.128.95 0 .683.128.963.128.28.427.28.296 0 .424-.28t.128-.962zm.928.007q0 .894-.386 1.382-.385.484-1.094.484-.712 0-1.098-.484-.385-.488-.385-1.382 0-.897.385-1.382.386-.487 1.098-.487.709 0 1.094.487.386.485.386 1.382zm.815 1.155h.82v-2.327l-.841.173v-.631l.837-.174h.882v2.959h.82v.641h-2.518Zm5.13-1.162q0-.676-.128-.95-.125-.278-.424-.278-.3 0-.427.277-.128.275-.128.95 0 .683.128.963.128.28.427.28.296 0 .424-.28t.128-.962zm.928.007q0 .894-.386 1.382-.385.484-1.094.484-.712 0-1.098-.484-.386-.488-.386-1.382 0-.897.386-1.382.386-.487 1.098-.487.709 0 1.094.487.386.485.386 1.382zm2.508-.007q0-.676-.127-.95-.126-.278-.425-.278t-.427.277q-.128.275-.128.95 0 .683.128.963.128.28.427.28.297 0 .425-.28.127-.28.127-.962zm.929.007q0 .894-.386 1.382-.386.484-1.095.484-.711 0-1.097-.484-.386-.488-.386-1.382 0-.897.386-1.382.386-.487 1.097-.487.71 0 1.095.487.386.485.386 1.382zm.815 1.155h.82v-2.327l-.842.173v-.631l.837-.174h.883v2.959h.82v.641h-2.518zm6.849-1.162q0-.676-.128-.95-.125-.278-.425-.278-.299 0-.426.277-.128.275-.128.95 0 .683.128.963.127.28.426.28.297 0 .425-.28t.128-.962zm.928.007q0 .894-.386 1.382-.386.484-1.095.484-.71 0-1.097-.484-.386-.488-.386-1.382 0-.897.386-1.382.386-.487 1.097-.487.71 0 1.095.487.386.485.386 1.382zm2.508-.007q0-.676-.128-.95-.125-.278-.424-.278-.3 0-.427.277-.128.275-.128.95 0 .683.128.963.128.28.427.28.297 0 .424-.28.128-.28.128-.962zm.929.007q0 .894-.386 1.382-.386.484-1.095.484-.711 0-1.097-.484-.386-.488-.386-1.382 0-.897.386-1.382.386-.487 1.097-.487.709 0 1.095.487.386.485.386 1.382zm.815 1.155h.82v-2.327l-.842.173v-.632l.837-.173h.883v2.959h.82v.641h-2.518zm5.13-1.163q0-.675-.129-.95-.125-.277-.424-.277-.3 0-.427.277-.128.275-.128.95 0 .683.128.963.128.28.427.28.297 0 .424-.28.128-.28.128-.963zm.928.008q0 .894-.386 1.382-.386.484-1.095.484-.711 0-1.097-.484-.386-.488-.386-1.382 0-.897.386-1.382.386-.487 1.097-.487.709 0 1.095.487.386.485.386 1.382zm.815 1.155h.82v-2.327l-.842.173v-.632l.837-.173h.882v2.959h.82v.641h-2.517zm3.436 0h.82v-2.327l-.841.173v-.632l.836-.173H90v2.959h.82v.641h-2.518zm3.437 0h.82v-2.327l-.842.173v-.632l.837-.173h.882v2.959h.82v.641H91.74zm5.13-1.163q0-.675-.129-.95-.125-.277-.424-.277-.3 0-.427.277-.128.275-.128.95 0 .683.128.963.128.28.427.28.296 0 .424-.28t.128-.963zm.928.008q0 .894-.386 1.381-.386.485-1.095.485-.712 0-1.097-.485-.386-.487-.386-1.381 0-.897.386-1.382.385-.487 1.097-.487.709 0 1.095.487.386.485.386 1.382zM14.39 28.877q0-.675-.128-.95-.125-.277-.424-.277-.3 0-.427.277-.128.275-.128.95 0 .683.128.963.128.28.427.28.296 0 .424-.28t.128-.963zm.929.007q0 .895-.386 1.382-.386.485-1.095.485-.712 0-1.097-.485-.386-.487-.386-1.382 0-.897.386-1.381.385-.487 1.097-.487.709 0 1.095.487.386.484.386 1.381zm.815 1.156h.82v-2.327l-.842.173v-.632l.837-.173h.882v2.959h.82v.641h-2.517zm3.436 0h.82v-2.327l-.842.173v-.632l.837-.173h.883v2.959h.82v.641H19.57zm5.13-1.163q0-.675-.128-.95-.126-.277-.425-.277t-.427.277q-.127.275-.127.95 0 .683.127.962.128.28.427.28.297 0 .425-.28t.128-.962zm.928.007q0 .895-.386 1.382-.386.485-1.095.485-.711 0-1.097-.485-.386-.487-.386-1.382 0-.897.386-1.381.386-.488 1.097-.488.71 0 1.095.488.386.484.386 1.381zm.815 1.156h.82v-2.327l-.842.173v-.632l.837-.173h.883v2.959h.82v.641h-2.518zm5.13-1.163q0-.675-.128-.95-.126-.277-.425-.277t-.427.277q-.127.275-.127.95 0 .683.127.962.128.28.427.28.297 0 .425-.28t.128-.962zm.928.007q0 .895-.386 1.382-.386.485-1.095.485-.711 0-1.097-.485-.386-.487-.386-1.382 0-.897.386-1.381.386-.488 1.097-.488.71 0 1.095.488.386.484.386 1.381zm2.508-.007q0-.675-.128-.95-.125-.277-.424-.277-.3 0-.427.277-.128.275-.128.95 0 .683.128.962.128.28.427.28.296 0 .424-.28t.128-.962zm.928.007q0 .895-.385 1.382-.386.485-1.095.485-.712 0-1.098-.485-.385-.487-.385-1.382 0-.897.385-1.381.386-.488 1.098-.488.709 0 1.095.488.385.484.385 1.381zm.816 1.156h.82v-2.327l-.842.173v-.632l.837-.173h.882v2.959h.82v.641h-2.517zm6.848-1.163q0-.675-.127-.95-.126-.277-.425-.277t-.427.277q-.127.275-.127.95 0 .683.127.962.128.28.427.28.297 0 .425-.28.127-.28.127-.962zm.929.007q0 .895-.386 1.382-.386.485-1.095.485-.711 0-1.097-.485-.386-.487-.386-1.382 0-.897.386-1.381.386-.488 1.097-.488.71 0 1.095.488.386.484.386 1.381zm.815 1.156h.82v-2.327l-.842.173v-.632l.837-.173h.883v2.959h.82v.641h-2.518zm3.436 0h.82v-2.327l-.841.173v-.632l.837-.173h.882v2.959h.82v.641h-2.518zm5.13-1.163q0-.675-.128-.95-.125-.277-.424-.277-.3 0-.427.277-.128.275-.128.95 0 .683.128.962.128.28.427.28.296 0 .424-.28t.128-.962zm.928.007q0 .895-.386 1.382-.385.485-1.094.485-.712 0-1.098-.485-.385-.487-.385-1.382 0-.897.385-1.381.386-.488 1.098-.488.709 0 1.094.488.386.484.386 1.381zm.815 1.156h.82v-2.327l-.841.173v-.632l.837-.173h.882v2.959h.82v.641h-2.518Zm3.437 0h.82v-2.327l-.842.173v-.632l.837-.173h.883v2.959h.82v.641H59.09zm3.436 0h.82v-2.327l-.841.173v-.632l.837-.173h.882v2.959h.82v.641h-2.518zm3.437 0h.82v-2.327l-.842.173v-.632l.837-.173h.883v2.959h.82v.641h-2.518zM8.947 35.082h1.515v.702H8.947Zm2.05 0h1.514v.702h-1.514zm2.05 0h1.514v.702h-1.514zm2.05 0h1.514v.702h-1.514Zm2.05 0h1.514v.702h-1.514zm2.05 0h1.514v.702h-1.515zm2.05 0h1.514v.702h-1.515zm2.049 0h1.514v.702h-1.514Zm2.05 0h1.514v.702h-1.514zm2.05 0h1.514v.702h-1.514zm2.05 0h1.514v.702h-1.514zm2.05 0h1.514v.702h-1.515Zm2.05 0h1.514v.702h-1.515zm2.049 0h1.514v.702h-1.514zm2.05 0h1.514v.702h-1.514zm2.05 0h1.514v.702h-1.514zm2.05 0h1.514v.702h-1.514zm2.05 0h1.514v.702h-1.515zm2.05 0h1.514v.702h-1.515zm2.049 0h1.514v.702h-1.514zm2.05 0h1.514v.702h-1.514Zm2.05 0h1.514v.702h-1.514zm2.05 0h1.514v.702h-1.514zm2.05 0h1.514v.702h-1.515zm2.05 0h1.514v.702h-1.515zm2.049 0h1.514v.702h-1.514zm2.05 0h1.514v.702h-1.514zm2.05 0h1.514v.702h-1.514zm2.05 0h1.514v.702h-1.515zm2.05 0h1.514v.702h-1.515Zm2.05 0h1.514v.702h-1.515zm2.049 0h1.514v.702h-1.514zm2.05 0h1.514v.702h-1.514zm2.05 0h1.514v.702h-1.514zm2.05 0h1.514v.702h-1.515zm2.05 0h1.514v.702H80.69zm2.05 0h1.514v.702H82.74zm2.049 0h1.514v.702h-1.514zm2.05 0h1.514v.702h-1.514zm2.05 0h1.514v.702h-1.514zm2.05 0h1.514v.702H90.94zm2.05 0h1.514v.702H92.99zm2.05 0h1.514v.702H95.04Zm2.049 0h1.514v.702H97.09zm2.05 0h1.514v.702H99.14zM12.572 39.428h1.54q.688 0 1.055.306.369.304.369.868 0 .567-.37.873-.366.304-1.053.304H13.5v1.25h-.928zm.928.673v1.005h.514q.27 0 .417-.13.147-.133.147-.374 0-.24-.147-.371-.147-.13-.417-.13zm4.66.962q-.114-.053-.227-.077-.111-.027-.225-.027-.332 0-.513.215-.179.212-.179.61v1.244h-.863v-2.7h.863v.443q.167-.265.381-.386.217-.123.519-.123.043 0 .094.005.05.003.147.015zm1.714-.183q-.287 0-.439.207-.15.205-.15.593 0 .389.15.596.152.205.439.205.282 0 .432-.205.15-.207.15-.596 0-.388-.15-.593-.15-.207-.432-.207zm0-.618q.697 0 1.088.377.393.376.393 1.041 0 .666-.393 1.042-.391.376-1.088.376-.7 0-1.095-.376-.393-.376-.393-1.042 0-.665.393-1.041.396-.377 1.095-.377zm4.29.15v.704q-.176-.12-.354-.178-.176-.058-.367-.058-.362 0-.564.212-.2.21-.2.588 0 .379.2.591.202.21.564.21.203 0 .384-.06.183-.06.337-.179v.707q-.202.075-.412.11-.208.04-.417.04-.731 0-1.143-.374-.413-.377-.413-1.045 0-.668.413-1.041.412-.377 1.143-.377.212 0 .417.039.207.036.412.11zm3.441 1.259v.246h-2.018q.031.303.22.455.188.152.525.152.273 0 .557-.08.287-.081.589-.245v.665q-.307.116-.613.174-.306.06-.612.06-.734 0-1.141-.371-.405-.374-.405-1.047 0-.66.398-1.04.4-.378 1.1-.378.636 0 1.017.384.383.383.383 1.025zm-.887-.287q0-.246-.145-.396-.142-.152-.373-.152-.251 0-.408.143-.157.14-.195.405zm3.651-.972v.656q-.277-.116-.535-.174-.258-.058-.487-.058-.246 0-.367.063-.118.06-.118.188 0 .104.09.16.09.055.325.081l.152.022q.663.084.892.277.229.193.229.606 0 .431-.318.648-.319.217-.95.217-.268 0-.555-.043-.285-.041-.586-.126v-.655q.258.125.528.188.273.062.552.062.253 0 .381-.07t.128-.207q0-.116-.09-.171-.086-.058-.349-.09l-.152-.019q-.576-.072-.808-.267-.231-.196-.231-.594 0-.429.294-.636.294-.208.902-.208.239 0 .502.036.262.037.571.114zm2.94 0v.656q-.277-.116-.536-.174-.258-.058-.487-.058-.246 0-.366.063-.118.06-.118.188 0 .104.089.16.091.055.325.081l.152.022q.664.084.893.277.229.193.229.606 0 .431-.319.648-.318.217-.95.217-.267 0-.554-.043-.285-.041-.586-.126v-.655q.258.125.528.188.272.062.552.062.253 0 .381-.07t.128-.207q0-.116-.09-.171-.086-.058-.35-.09l-.151-.019q-.576-.072-.808-.267-.231-.196-.231-.594 0-.429.294-.636.294-.208.902-.208.238 0 .501.036.263.037.572.114zm4.731 0v.704q-.176-.12-.354-.178-.176-.058-.367-.058-.361 0-.564.212-.2.21-.2.588 0 .379.2.591.203.21.564.21.203 0 .384-.06.183-.06.337-.179v.707q-.202.075-.412.11-.207.04-.417.04-.73 0-1.143-.374-.413-.377-.413-1.045 0-.668.413-1.041.412-.377 1.143-.377.212 0 .417.039.207.036.412.11zm2.03.468q-.286 0-.438.207-.15.205-.15.593 0 .389.15.596.152.205.439.205.282 0 .432-.205.15-.207.15-.596 0-.388-.15-.593-.15-.207-.432-.207zm0-.618q.698 0 1.088.377.394.376.394 1.041 0 .666-.394 1.042-.39.376-1.087.376-.7 0-1.095-.376-.393-.376-.393-1.042 0-.665.393-1.041.396-.377 1.095-.377zm4.612.514q.164-.25.388-.381.227-.133.497-.133.465 0 .709.287.243.287.243.835v1.644h-.868V41.62q.003-.031.003-.065.002-.034.002-.097 0-.287-.084-.414-.085-.13-.273-.13-.246 0-.38.202-.134.203-.138.586v1.326h-.869V41.62q0-.449-.077-.576-.077-.13-.275-.13-.248 0-.383.204-.135.203-.135.582v1.328h-.868v-2.7h.868v.395q.16-.23.364-.345.207-.116.456-.116.28 0 .494.135.215.135.326.379zm3.506 1.862v1.418h-.863v-3.729h.863v.396q.179-.236.396-.347.217-.114.499-.114.5 0 .82.398.32.396.32 1.02 0 .625-.32 1.023-.32.395-.82.395-.282 0-.5-.11-.216-.114-.395-.35zm.574-1.749q-.277 0-.427.205-.147.203-.147.586 0 .384.147.589.15.202.427.202t.422-.202q.147-.203.147-.589 0-.386-.147-.588-.145-.203-.422-.203zm2.098-1.613h.864v3.752h-.864zm4.39 2.395v.246h-2.02q.032.303.22.455.188.152.526.152.272 0 .557-.08.287-.081.588-.245v.665q-.306.116-.612.174-.306.06-.613.06-.733 0-1.14-.371-.405-.374-.405-1.047 0-.66.397-1.04.4-.378 1.1-.378.637 0 1.018.384.383.383.383 1.025zm-.888-.287q0-.246-.145-.396-.142-.152-.374-.152-.25 0-.407.143-.157.14-.196.405zm2.484-1.823v.766h.89v.618h-.89v1.145q0 .188.075.256.074.065.296.065h.444v.617h-.74q-.512 0-.726-.212-.213-.214-.213-.726v-1.145h-.429v-.618h.43v-.766Zm4.114 2.11v.246H58.94q.032.303.22.455.188.152.526.152.272 0 .557-.08.287-.081.588-.245v.665q-.306.116-.612.174-.307.06-.613.06-.733 0-1.14-.371-.406-.374-.406-1.047 0-.66.398-1.04.4-.378 1.1-.378.636 0 1.017.384.384.383.384 1.025zm-.888-.287q0-.246-.144-.396-.143-.152-.374-.152-.25 0-.408.143-.156.14-.195.405zm1.63.711h.869v.933h-.868z"/>
        </g>
        <rect style="fill:none;fill-opacity:1;stroke:#252525;stroke-width:2.2;stroke-dasharray:none;stroke-dashoffset:0;stroke-opacity:1;paint-order:markers stroke fill" width="108.606" height="75.984" x="8.68" y="6.867" ry=".501"/>
        <g transform="translate(0 6.7)">
            <rect style="fill:none;fill-opacity:1;stroke:#3d3d3d;stroke-width:9.646;stroke-dasharray:none;stroke-dashoffset:0;stroke-opacity:1;paint-order:markers stroke fill" width="115.172" height="32.403" x="5.397" y="122.845" ry=".625"/>
            <rect style="fill:#595959;fill-opacity:1;stroke:none;stroke-width:5.91329;stroke-dasharray:none;stroke-dashoffset:0;stroke-opacity:1;paint-order:markers stroke fill" width="115.172" height="32.403" x="5.397" y="122.845" ry=".625"/>
            <rect style="fill:#787878;fill-opacity:1;stroke:none;stroke-width:2.11667;stroke-dasharray:none;stroke-dashoffset:0;stroke-opacity:1;paint-order:markers stroke fill" width="115.044" height="23.621" x="5.397" y="122.845" ry=".664"/>
            <rect style="fill:#787878;fill-opacity:1;stroke:none;stroke-width:2.11667;stroke-dasharray:none;stroke-dashoffset:0;stroke-opacity:1;paint-order:markers stroke fill" width="26.019" height="5.385" x="47.118" y="148.26" ry=".664"/>
            <g transform="translate(3.142 -61.544)">
                <path style="fill:#595959;fill-opacity:1;stroke:#3d3d3d;stroke-width:2.11667;stroke-dasharray:none;stroke-dashoffset:0;stroke-opacity:1;paint-order:markers stroke fill" d="M2.382 190.548h114.916M2.382 196.369h114.916M2.382 202.19h114.916M2.382 208.01h114.916"/>
                <path style="fill:none;fill-opacity:1;stroke:#3d3d3d;stroke-width:2.11667;stroke-dasharray:none;stroke-dashoffset:0;stroke-opacity:1;paint-order:markers stroke fill" d="M8.831 208.01V184.39M15.181 208.01V184.39M21.531 208.01V184.39M27.881 208.01V184.39M34.231 208.01V184.39M40.581 208.01V184.39M46.931 208.01V184.39M53.281 208.01V184.39M59.631 208.01V184.39M65.981 208.01V184.39M72.331 208.01V184.39M78.681 208.01V184.39M85.031 208.01V184.39M91.381 208.01V184.39M97.731 208.01V184.39M104.081 208.01V184.39M110.431 208.01V184.39"/>
                <rect style="fill:none;fill-opacity:1;stroke:#3d3d3d;stroke-width:1.88413;stroke-dasharray:none;stroke-dashoffset:0;stroke-opacity:1;paint-order:markers stroke fill" width="26.019" height="5.385" x="43.976" y="209.804" ry=".664"/>
            </g>
        </g>
        <text xml:space="preserve" style="font-weight:700;font-size:3.88056px;font-family:sans-serif;-inkscape-font-specification:'sans-serif Bold';fill:#0aab00;fill-opacity:1;stroke:none;stroke-width:2.11667;stroke-dasharray:none;stroke-dashoffset:0;stroke-opacity:1;paint-order:markers stroke fill" x="8.68" y="34.78"/>
    </g>
</svg>
