<?xml version="1.0" encoding="UTF-8" standalone="no"?>
<svg
   viewBox="-26 -28 1805.7025 512.00001"
   version="1.1"
   id="svg940"
   sodipodi:docname="logo.svg"
   width="1805.7025"
   height="512"
   inkscape:version="1.1.2 (0a00cf5339, 2022-02-04)"
   inkscape:export-xdpi="54.440861"
   inkscape:export-ydpi="54.440861"
   inkscape:export-filename="/home/desktopgeek/Downloads/logo.png"
   xmlns:inkscape="http://www.inkscape.org/namespaces/inkscape"
   xmlns:sodipodi="http://sodipodi.sourceforge.net/DTD/sodipodi-0.dtd"
   xmlns="http://www.w3.org/2000/svg"
   xmlns:svg="http://www.w3.org/2000/svg">
  <sodipodi:namedview
     id="namedview942"
     pagecolor="#505050"
     bordercolor="#ffffff"
     borderopacity="1"
     inkscape:pageshadow="0"
     inkscape:pageopacity="0"
     inkscape:pagecheckerboard="1"
     showgrid="false"
     inkscape:zoom="0.9875698"
     inkscape:cx="1096.6314"
     inkscape:cy="164.03904"
     inkscape:window-width="2560"
     inkscape:window-height="1372"
     inkscape:window-x="0"
     inkscape:window-y="0"
     inkscape:window-maximized="1"
     inkscape:current-layer="g1024" />
  <defs
     id="defs928">
    <clipPath
       id="b">
      <circle
         cy="-15"
         r="9.5"
         id="circle900"
         cx="0" />
      <circle
         cy="-15"
         r="9.5"
         transform="rotate(120)"
         id="circle902"
         cx="0" />
      <circle
         cy="-15"
         r="9.5"
         transform="rotate(-120)"
         id="circle904"
         cx="0" />
    </clipPath>
    <mask
       id="a"
       width="60"
       height="60"
       x="-30"
       y="-30"
       maskUnits="userSpaceOnUse">
      <path
         fill="#ffffff"
         d="M -27,-27 H 27 V 27 H -27 Z"
         id="path907" />
      <path
         d="m 2,-23 v -4 h -4 v 4 m 1.5,17 v 4 h 1 v -4"
         id="path909" />
      <circle
         cy="-15"
         r="10.5"
         id="circle911"
         cx="0" />
      <g
         transform="rotate(120)"
         id="g917">
        <path
           d="m 2,-23 v -4 h -4 v 4 m 1.5,17 v 4 h 1 v -4"
           id="path913" />
        <circle
           cy="-15"
           r="10.5"
           id="circle915"
           cx="0" />
      </g>
      <g
         transform="rotate(-120)"
         id="g923">
        <path
           d="m 2,-23 v -4 h -4 v 4 m 1.5,17 v 4 h 1 v -4"
           id="path919" />
        <circle
           cy="-15"
           r="10.5"
           id="circle921"
           cx="0" />
      </g>
      <circle
         r="3"
         id="circle925"
         cx="0"
         cy="0" />
    </mask>
    <filter
       style="color-interpolation-filters:sRGB"
       inkscape:label="Drop Shadow"
       id="filter32941"
       x="-0.18707006"
       y="-0.096207474"
       width="1.5122842"
       height="1.2634605">
      <feFlood
         flood-opacity="0.498039"
         flood-color="rgb(0,0,0)"
         result="flood"
         id="feFlood32931" />
      <feComposite
         in="flood"
         in2="SourceGraphic"
         operator="in"
         result="composite1"
         id="feComposite32933" />
      <feGaussianBlur
         in="composite1"
         stdDeviation="0.5"
         result="blur"
         id="feGaussianBlur32935" />
      <feOffset
         dx="1.2"
         dy="1.2"
         result="offset"
         id="feOffset32937" />
      <feComposite
         in="SourceGraphic"
         in2="offset"
         operator="over"
         result="composite2"
         id="feComposite32939" />
    </filter>
    <filter
       style="color-interpolation-filters:sRGB"
       inkscape:label="Drop Shadow"
       id="filter889"
       x="-0.18707006"
       y="-0.096207477"
       width="1.5122842"
       height="1.2634605">
      <feFlood
         flood-opacity="0.498039"
         flood-color="rgb(0,0,0)"
         result="flood"
         id="feFlood879" />
      <feComposite
         in="flood"
         in2="SourceGraphic"
         operator="in"
         result="composite1"
         id="feComposite881" />
      <feGaussianBlur
         in="composite1"
         stdDeviation="0.5"
         result="blur"
         id="feGaussianBlur883" />
      <feOffset
         dx="1.2"
         dy="1.2"
         result="offset"
         id="feOffset885" />
      <feComposite
         in="SourceGraphic"
         in2="offset"
         operator="over"
         result="composite2"
         id="feComposite887" />
    </filter>
    <filter
       style="color-interpolation-filters:sRGB"
       inkscape:label="Drop Shadow"
       id="filter901"
       x="-0.18707006"
       y="-0.096207477"
       width="1.5122842"
       height="1.2634605">
      <feFlood
         flood-opacity="0.498039"
         flood-color="rgb(0,0,0)"
         result="flood"
         id="feFlood891" />
      <feComposite
         in="flood"
         in2="SourceGraphic"
         operator="in"
         result="composite1"
         id="feComposite893" />
      <feGaussianBlur
         in="composite1"
         stdDeviation="0.5"
         result="blur"
         id="feGaussianBlur895" />
      <feOffset
         dx="1.2"
         dy="1.2"
         result="offset"
         id="feOffset897" />
      <feComposite
         in="SourceGraphic"
         in2="offset"
         operator="over"
         result="composite2"
         id="feComposite899" />
    </filter>
    <filter
       style="color-interpolation-filters:sRGB"
       inkscape:label="Drop Shadow"
       id="filter913"
       x="-0.18707006"
       y="-0.096207477"
       width="1.5122842"
       height="1.2634605">
      <feFlood
         flood-opacity="0.498039"
         flood-color="rgb(0,0,0)"
         result="flood"
         id="feFlood903" />
      <feComposite
         in="flood"
         in2="SourceGraphic"
         operator="in"
         result="composite1"
         id="feComposite905" />
      <feGaussianBlur
         in="composite1"
         stdDeviation="0.5"
         result="blur"
         id="feGaussianBlur907" />
      <feOffset
         dx="1.2"
         dy="1.2"
         result="offset"
         id="feOffset909" />
      <feComposite
         in="SourceGraphic"
         in2="offset"
         operator="over"
         result="composite2"
         id="feComposite911" />
    </filter>
    <filter
       style="color-interpolation-filters:sRGB"
       inkscape:label="Drop Shadow"
       id="filter925"
       x="-0.18707006"
       y="-0.096207477"
       width="1.5122842"
       height="1.2634605">
      <feFlood
         flood-opacity="0.498039"
         flood-color="rgb(0,0,0)"
         result="flood"
         id="feFlood915" />
      <feComposite
         in="flood"
         in2="SourceGraphic"
         operator="in"
         result="composite1"
         id="feComposite917" />
      <feGaussianBlur
         in="composite1"
         stdDeviation="0.5"
         result="blur"
         id="feGaussianBlur919" />
      <feOffset
         dx="1.2"
         dy="1.2"
         result="offset"
         id="feOffset921" />
      <feComposite
         in="SourceGraphic"
         in2="offset"
         operator="over"
         result="composite2"
         id="feComposite923" />
    </filter>
    <filter
       style="color-interpolation-filters:sRGB"
       inkscape:label="Drop Shadow"
       id="filter937"
       x="-0.18707006"
       y="-0.096207477"
       width="1.5122842"
       height="1.2634605">
      <feFlood
         flood-opacity="0.498039"
         flood-color="rgb(0,0,0)"
         result="flood"
         id="feFlood927" />
      <feComposite
         in="flood"
         in2="SourceGraphic"
         operator="in"
         result="composite1"
         id="feComposite929" />
      <feGaussianBlur
         in="composite1"
         stdDeviation="0.5"
         result="blur"
         id="feGaussianBlur931" />
      <feOffset
         dx="1.2"
         dy="1.2"
         result="offset"
         id="feOffset933" />
      <feComposite
         in="SourceGraphic"
         in2="offset"
         operator="over"
         result="composite2"
         id="feComposite935" />
    </filter>
    <filter
       style="color-interpolation-filters:sRGB"
       inkscape:label="Drop Shadow"
       id="filter19587"
       x="-0.0092467688"
       y="-0.096204733"
       width="1.0269231"
       height="1.2801114">
      <feFlood
         flood-opacity="0.498039"
         flood-color="rgb(0,0,0)"
         result="flood"
         id="feFlood19577" />
      <feComposite
         in="flood"
         in2="SourceGraphic"
         operator="in"
         result="composite1"
         id="feComposite19579" />
      <feGaussianBlur
         in="composite1"
         stdDeviation="0.5"
         result="blur"
         id="feGaussianBlur19581" />
      <feOffset
         dx="1.5"
         dy="1.5"
         result="offset"
         id="feOffset19583" />
      <feComposite
         in="SourceGraphic"
         in2="offset"
         operator="over"
         result="composite2"
         id="feComposite19585" />
    </filter>
    <filter
       style="color-interpolation-filters:sRGB"
       inkscape:label="Drop Shadow"
       id="filter905"
       x="-0.052147262"
       y="-0.052147262"
       width="1.1297322"
       height="1.1297322">
      <feFlood
         flood-opacity="0.498039"
         flood-color="rgb(0,0,0)"
         result="flood"
         id="feFlood895" />
      <feComposite
         in="flood"
         in2="SourceGraphic"
         operator="in"
         result="composite1"
         id="feComposite897" />
      <feGaussianBlur
         in="composite1"
         stdDeviation="0.5"
         result="blur"
         id="feGaussianBlur899" />
      <feOffset
         dx="1.5"
         dy="1.5"
         result="offset"
         id="feOffset901" />
      <feComposite
         in="SourceGraphic"
         in2="offset"
         operator="over"
         result="composite2"
         id="feComposite903" />
    </filter>
  </defs>
  <g
     id="g958"
     transform="matrix(7.685654,0,0,7.685654,187.85332,201.22463)">
    <circle
       style="fill:#000000;fill-opacity:1;stroke:#008af0;stroke-width:3.75;stroke-linejoin:round;stroke-miterlimit:4;stroke-dasharray:none;stroke-opacity:1;filter:url(#filter905)"
       id="path1805"
       cx="4.7338104"
       cy="2.7338104"
       r="29.48381" />
    <circle
       style="fill:none;fill-opacity:1;stroke:#ff7500;stroke-width:3;stroke-linejoin:round;stroke-miterlimit:4;stroke-dasharray:none;stroke-opacity:1"
       id="path1388"
       cx="4.7338099"
       cy="2.7338099"
       r="28.553837" />
    <g
       id="g2312"
       transform="matrix(0.95833334,0,0,0.95833334,0.90047659,-1.8798139)">
      <g
         mask="url(#a)"
         id="g936"
         style="fill:#ff7500;fill-opacity:1;stroke:none;stroke-opacity:1"
         transform="matrix(0.97854222,0,0,0.97853768,4,4.6909786)">
        <circle
           cy="-11"
           r="15"
           id="circle930"
           style="fill:#ff7500;fill-opacity:1;stroke:none;stroke-opacity:1"
           cx="0" />
        <circle
           cy="-11"
           r="15"
           transform="rotate(120)"
           id="circle932"
           style="fill:#ff7500;fill-opacity:1;stroke:none;stroke-opacity:1"
           cx="0" />
        <circle
           cy="-11"
           r="15"
           transform="rotate(-120)"
           id="circle934"
           style="fill:#ff7500;fill-opacity:1;stroke:none;stroke-opacity:1"
           cx="0" />
      </g>
      <circle
         r="11.75"
         fill="none"
         stroke="#000"
         stroke-width="3.5"
         clip-path="url(#b)"
         id="circle938"
         style="stroke:#008aff;stroke-opacity:1"
         cx="0"
         cy="0"
         transform="matrix(0.97854222,0,0,0.97853768,4,4.6909786)" />
    </g>
  </g>
  <g
     aria-label="SUROI"
     id="text1684"
     style="font-size:24.1294px;line-height:1.25;font-family:Jura;-inkscape-font-specification:Jura;letter-spacing:0px;word-spacing:0px;fill:#ffffff;fill-opacity:1;stroke-width:0.85;stroke-miterlimit:4;stroke-dasharray:none;filter:url(#filter32941)"
     transform="matrix(6.8568204,0,0,6.8568204,441.26617,-27.999969)" />
  <g
     id="g1024"
     transform="translate(-44.733828,-1.9741499e-5)">
    <path
       d="m 14.16491,17.866448 q 6.611456,0.361941 8.952008,0.361941 0.554976,0 0.868658,-0.313682 0.337812,-0.337811 0.337812,-0.892788 v -2.171646 h -5.549762 q -2.533587,0 -3.691799,-1.134081 -1.134081,-1.158212 -1.134081,-3.691799 V 9.3005114 q 0,-2.5335871 1.134081,-3.6676689 1.158212,-1.1582112 3.691799,-1.1582112 h 8.469419 v 3.378116 h -7.504243 q -1.447764,0 -1.447764,1.4477641 v 0.482588 q 0,1.4477636 1.447764,1.4477636 h 4.343292 q 2.364681,0 3.474633,1.109953 1.109953,1.109952 1.109953,3.474633 v 1.20647 q 0,2.364682 -1.109953,3.474634 -1.109952,1.109952 -3.474633,1.109952 -1.2306,0 -2.605976,-0.04826 l -2.219904,-0.09652 Q 16.795015,21.341082 14.16491,21.123917 Z"
       style="font-size:24.1294px;line-height:1.25;font-family:'Russo One';-inkscape-font-specification:'Russo One';letter-spacing:0px;word-spacing:0px;fill:#ffffff;fill-opacity:1;stroke:#000000;stroke-width:0.85;stroke-miterlimit:4;stroke-dasharray:none;stroke-opacity:1;filter:url(#filter32941)"
       id="path12782"
       transform="matrix(15.272833,0,0,15.272833,375.76555,-67.127553)" />
    <path
       d="m 41.696512,4.4746313 h 4.343292 V 16.780625 q 0,2.533587 -1.158211,3.691799 -1.134082,1.134081 -3.667669,1.134081 h -5.549762 q -2.533587,0 -3.691798,-1.134081 -1.134082,-1.158212 -1.134082,-3.691799 V 4.4746313 h 4.343292 V 16.780625 q 0,1.447764 1.447764,1.447764 h 3.61941 q 1.447764,0 1.447764,-1.447764 z"
       style="font-size:24.1294px;line-height:1.25;font-family:'Russo One';-inkscape-font-specification:'Russo One';letter-spacing:0px;word-spacing:0px;fill:#ffffff;fill-opacity:1;stroke:#000000;stroke-width:0.85;stroke-miterlimit:4;stroke-dasharray:none;stroke-opacity:1;filter:url(#filter32941)"
       id="path12784"
       transform="matrix(15.272833,0,0,15.272833,375.76555,-67.127553)" />
    <path
       d="m 48.935284,4.4746313 h 10.134348 q 2.533587,0 3.667669,1.1582112 1.158211,1.1340818 1.158211,3.6676689 v 2.1716456 q 0,2.002741 -0.675623,3.112693 -0.651494,1.109952 -2.099258,1.471893 l 3.016175,5.308468 h -4.705233 l -2.774881,-5.067174 h -3.378116 v 5.067174 H 48.935284 Z M 59.55222,9.3005114 q 0,-1.4477641 -1.447764,-1.4477641 h -4.82588 v 5.0671737 h 4.82588 q 1.447764,0 1.447764,-1.447764 z"
       style="font-size:24.1294px;line-height:1.25;font-family:'Russo One';-inkscape-font-specification:'Russo One';letter-spacing:0px;word-spacing:0px;fill:#ffffff;fill-opacity:1;stroke:#000000;stroke-width:0.85;stroke-miterlimit:4;stroke-dasharray:none;stroke-opacity:1;filter:url(#filter32941)"
       id="path12786"
       transform="matrix(15.272833,0,0,15.272833,375.76555,-67.127553)" />
    <path
       d="m 77.166668,9.0592174 q 0,-1.4477641 -1.447764,-1.4477641 h -4.101998 q -1.447764,0 -1.447764,1.4477641 v 7.7214076 q 0,1.447764 1.447764,1.447764 h 4.101998 q 1.447764,0 1.447764,-1.447764 z m 4.343292,7.7214076 q 0,2.533587 -1.158211,3.691799 -1.134082,1.134081 -3.667669,1.134081 h -6.03235 q -2.533587,0 -3.691798,-1.134081 Q 65.82585,19.314212 65.82585,16.780625 V 9.0592174 q 0,-2.5335871 1.134082,-3.6676689 1.158211,-1.1582112 3.691798,-1.1582112 h 6.03235 q 2.533587,0 3.667669,1.1582112 1.158211,1.1340818 1.158211,3.6676689 z"
       style="font-size:24.1294px;line-height:1.25;font-family:'Russo One';-inkscape-font-specification:'Russo One';letter-spacing:0px;word-spacing:0px;fill:#ff7300;fill-opacity:1;stroke:#401d00;stroke-width:0.85;stroke-miterlimit:4;stroke-dasharray:none;stroke-opacity:1;filter:url(#filter32941)"
       id="path12788"
       transform="matrix(15.272833,0,0,15.272833,375.76555,-67.127553)" />
    <path
       d="M 91.885589,21.365211 H 83.199004 V 17.987095 H 85.37065 V 7.8527473 h -2.171646 v -3.378116 h 8.686585 v 3.378116 H 89.713943 V 17.987095 h 2.171646 z"
       style="font-size:24.1294px;line-height:1.25;font-family:'Russo One';-inkscape-font-specification:'Russo One';letter-spacing:0px;word-spacing:0px;fill:#ff7300;fill-opacity:1;stroke:#401d00;stroke-width:0.85;stroke-miterlimit:4;stroke-dasharray:none;stroke-opacity:1;filter:url(#filter32941)"
       id="path12790"
       transform="matrix(15.272833,0,0,15.272833,375.76555,-67.127553)" />
    <g
       aria-label="OFFICIAL WIKI"
       transform="matrix(6.9095994,0,0,6.8044446,542.25366,832.07915)"
       id="text3259"
       style="font-size:23.7547px;line-height:1.25;font-family:Jura;-inkscape-font-specification:Jura;letter-spacing:0px;word-spacing:0px;stroke:#00303c;stroke-width:0.890853;filter:url(#filter19587)">
      <path
         d="m 15.638594,-66.652548 q 0,-1.425282 -1.425282,-1.425282 h -4.038299 q -1.4252819,0 -1.4252819,1.425282 v 7.601504 q 0,1.425282 1.4252819,1.425282 h 4.038299 q 1.425282,0 1.425282,-1.425282 z m 4.275846,7.601504 q 0,2.494243 -1.140226,3.634469 -1.116471,1.116471 -3.610714,1.116471 H 9.2248251 q -2.4942435,0 -3.6344691,-1.116471 -1.1164709,-1.140226 -1.1164709,-3.634469 v -7.601504 q 0,-2.494243 1.1164709,-3.610714 1.1402256,-1.140226 3.6344691,-1.140226 H 15.1635 q 2.494243,0 3.610714,1.140226 1.140226,1.116471 1.140226,3.610714 z"
         style="font-family:'Russo One';-inkscape-font-specification:'Russo One';fill:#008cff"
         id="path2122" />
      <path
         d="m 26.565745,-54.537651 h -4.275846 v -16.62829 h 13.183858 v 3.325658 h -8.908012 v 3.919526 h 7.007636 v 3.325658 h -7.007636 z"
         style="font-family:'Russo One';-inkscape-font-specification:'Russo One';fill:#008cff"
         id="path2124" />
      <path
         d="M 41.412386,-54.537651 H 37.13654 v -16.62829 h 13.183858 v 3.325658 h -8.908012 v 3.919526 h 7.007637 v 3.325658 h -7.007637 z"
         style="font-family:'Russo One';-inkscape-font-specification:'Russo One';fill:#008cff"
         id="path2126" />
      <path
         d="m 59.822233,-54.537651 h -8.551692 v -3.325658 h 2.137923 v -9.976974 h -2.137923 v -3.325658 h 8.551692 v 3.325658 H 57.68431 v 9.976974 h 2.137923 z"
         style="font-family:'Russo One';-inkscape-font-specification:'Russo One';fill:#008cff"
         id="path2128" />
      <path
         d="m 74.787648,-54.775198 q -5.297298,0.475094 -8.789239,0.475094 -2.32796,0 -3.420676,-1.092716 -1.092717,-1.092716 -1.092717,-3.420677 v -7.601504 q 0,-2.494243 1.116471,-3.610714 1.140226,-1.140226 3.634469,-1.140226 h 8.551692 v 3.325658 h -7.601504 q -1.425282,0 -1.425282,1.425282 v 7.601504 q 0,0.546358 0.308811,0.878924 0.332566,0.308811 0.831415,0.308811 0.498849,0 1.092716,0 0.593868,-0.02376 1.235245,-0.04751 0.641376,-0.02376 1.282753,-0.04751 0.665132,-0.02375 1.686584,-0.09502 1.045207,-0.07126 2.589262,-0.166283 z"
         style="font-family:'Russo One';-inkscape-font-specification:'Russo One';fill:#008cff"
         id="path2130" />
      <path
         d="m 84.527051,-54.537651 h -8.551692 v -3.325658 h 2.137923 v -9.976974 h -2.137923 v -3.325658 h 8.551692 v 3.325658 h -2.137923 v 9.976974 h 2.137923 z"
         style="font-family:'Russo One';-inkscape-font-specification:'Russo One';fill:#008cff"
         id="path2132" />
      <path
         d="M 89.634267,-54.537651 H 85.0021 l 6.294996,-16.62829 h 4.75094 l 6.294994,16.62829 h -4.632166 l -1.068961,-2.969338 h -5.938675 z m 2.137923,-6.057448 h 3.800752 l -1.900376,-5.582355 z"
         style="font-family:'Russo One';-inkscape-font-specification:'Russo One';fill:#008cff"
         id="path2134" />
      <path
         d="m 107.80659,-57.863309 h 8.67046 v 3.325658 h -12.94631 v -16.62829 h 4.27585 z"
         style="font-family:'Russo One';-inkscape-font-specification:'Russo One';fill:#008cff"
         id="path2136" />
      <path
         d="m 137.38117,-71.165941 2.85056,10.689615 2.49424,-10.689615 h 4.63217 l -4.51339,16.62829 h -4.51339 l -2.85057,-10.333294 -2.85056,10.333294 h -4.5134 l -4.51339,-16.62829 h 4.63217 l 2.49424,10.689615 2.85057,-10.689615 z"
         style="font-family:'Russo One';-inkscape-font-specification:'Russo One';fill:#008cff"
         id="path2138" />
      <path
         d="m 156.38492,-54.537651 h -8.55169 v -3.325658 h 2.13792 v -9.976974 h -2.13792 v -3.325658 h 8.55169 v 3.325658 H 154.247 v 9.976974 h 2.13792 z"
         style="font-family:'Russo One';-inkscape-font-specification:'Russo One';fill:#008cff"
         id="path2140" />
      <path
         d="m 162.79865,-54.537651 h -4.27585 v -16.62829 h 4.27585 v 6.532543 h 2.13792 l 3.70573,-6.532543 h 4.5134 l -4.65592,8.195372 4.63216,8.432918 h -4.51339 l -3.68198,-6.770089 h -2.13792 z"
         style="font-family:'Russo One';-inkscape-font-specification:'Russo One';fill:#008cff"
         id="path2142" />
      <path
         d="m 182.41999,-54.537651 h -8.55169 v -3.325658 h 2.13792 v -9.976974 h -2.13792 v -3.325658 h 8.55169 v 3.325658 h -2.13792 v 9.976974 h 2.13792 z"
         style="font-family:'Russo One';-inkscape-font-specification:'Russo One';fill:#008cff"
         id="path2144" />
    </g>
  </g>
</svg>
